<svg version="1.1" id="Calque_1" xmlns="http://www.w3.org/2000/svg" xmlns:xlink="http://www.w3.org/1999/xlink" x="0px" y="0px" viewBox="0 0 270 64" style="enable-background:new 0 0 270 64;" xml:space="preserve">
<style nonce="" type="text/css">
	.st0{fill:none;stroke:#4E4E4E;stroke-miterlimit:10;}
	.st1{fill:#F5A12F;}
	.st2{fill:#4E4E4E;}
</style>
<g id="Attineos">
	<line class="st0" x1="110.2" y1="58.9" x2="0.3" y2="58.9"></line>
	<g>
		<path class="st1" d="M268.8,27.1c-0.6,0-1.1,0.5-1.1,1.1l0,0v3.3c0,1.2-1,2.3-2.3,2.3l0,0c-1.2,0-2.3-1-2.3-2.3l0,0v-4.6			c0-7.5-6.1-13.5-13.5-13.5c-2.8,0-5.6,0.9-7.9,2.5c-2.3-1.7-5-2.6-7.9-2.5c-7.5,0-13.5,6.1-13.5,13.5v8.9c0,2.5,2,4.5,4.5,4.5			c2.5,0,4.5-2,4.5-4.5v-1.5c0-2.5,2-4.5,4.5-4.5c2.5,0,4.5,2,4.5,4.5v1.5c0,2.5,2,4.5,4.5,4.5c2.5,0,4.5-2,4.5-4.5v-4.4			c0-2.5,2-4.5,4.5-4.5c2.5,0,4.5,2,4.5,4.5l0,0v0c0,3.7,3,6.8,6.8,6.8l0,0c3.7,0,6.8-3,6.8-6.8c0,0,0,0,0,0v-3.2			C269.9,27.6,269.4,27.1,268.8,27.1z M256.4,23.4c-0.6,0-1.2-0.5-1.2-1.1l0,0c0-0.6,0.5-1.1,1.1-1.2l0,0c0.6,0,1.1,0.5,1.2,1.1l0,0			C257.6,22.9,257.1,23.4,256.4,23.4L256.4,23.4z"></path>
		<g>
			<path class="st1" d="M25.4,24.6v15.8h-7.3V37c-1.4,2.5-4.2,3.9-8.1,3.9c-6.3,0-10-3.6-10-8.4c0-4.9,3.3-8.3,11.5-8.3h6.2				c0-3.4-2-5.4-6.2-5.4c-2.8,0-5.8,1-7.7,2.6L1,15.7c2.9-2.2,7.3-3.3,11.5-3.3C20.7,12.4,25.4,16.3,25.4,24.6z M17.6,31.7v-2.8				h-5.3c-3.6,0-4.8,1.4-4.8,3.2c0,2,1.6,3.3,4.4,3.3C14.5,35.4,16.7,34.2,17.6,31.7z"></path>
			<path class="st1" d="M49.6,39.1c-1.6,1.2-3.9,1.7-6.3,1.7c-6.3,0-10-3.3-10-9.9V19.6h-4.1v-6.2h4.1V6.7h7.7v6.7h6.7v6.2h-6.7				v11.2c0,2.4,1.2,3.6,3.3,3.6c1.1,0,2.3-0.4,3.1-1L49.6,39.1z"></path>
			<path class="st1" d="M70.6,39.1c-1.6,1.2-3.9,1.7-6.3,1.7c-6.3,0-10-3.3-10-9.9V19.6h-4.1v-6.2h4.1V6.7h7.7v6.7h6.7v6.2h-6.7				v11.2c0,2.4,1.2,3.6,3.3,3.6c1.1,0,2.3-0.4,3.1-1L70.6,39.1z"></path>
			<path class="st1" d="M74,4.5C74,2,76,0,78.9,0s4.8,1.8,4.8,4.3c0,2.7-1.9,4.6-4.8,4.6S74,7,74,4.5z M75,12.8h7.7v27.6H75V12.8z"></path>
		</g>
		<g>
			<path class="st2" d="M115.9,24.7v15.7h-4.8V25.3c0-5.3-2.6-8-7.1-8c-5.1,0-8.3,3.1-8.3,9v14h-4.8V13.2h4.6v4.1				c1.9-2.8,5.3-4.4,9.5-4.4C111.3,12.9,115.9,16.7,115.9,24.7z"></path>
			<path class="st2" d="M148.5,28.4h-21.4c0.6,4.8,4.3,8,9.5,8c3.1,0,5.7-1.1,7.6-3.3l2.6,3.2c-2.4,2.9-6,4.4-10.4,4.4				c-8.5,0-14.2-5.8-14.2-13.9c0-8.1,5.6-13.9,13.2-13.9s13,5.6,13,14C148.6,27.4,148.6,28,148.5,28.4z M127.2,24.9h16.9				c-0.5-4.6-3.8-7.8-8.4-7.8C131.1,17.1,127.7,20.3,127.2,24.9z"></path>
			<path class="st2" d="M152.8,26.8c0-8.1,5.8-13.9,13.7-13.9c7.9,0,13.7,5.7,13.7,13.9s-5.8,13.9-13.7,13.9				C158.6,40.7,152.8,34.9,152.8,26.8z M175.4,26.8c0-5.8-3.8-9.5-8.8-9.5c-5.1,0-8.9,3.7-8.9,9.5s3.8,9.6,8.9,9.6				C171.6,36.4,175.4,32.6,175.4,26.8z"></path>
			<path class="st2" d="M183.5,37.5l2-3.9c2.2,1.6,5.8,2.8,9.2,2.8c4.4,0,6.3-1.4,6.3-3.7c0-6.1-16.6-0.8-16.6-11.7				c0-4.9,4.2-8.2,11-8.2c3.4,0,7.3,0.9,9.6,2.5l-2,3.9c-2.4-1.6-5-2.2-7.6-2.2c-4.2,0-6.2,1.6-6.2,3.7c0,6.4,16.7,1.2,16.7,11.8				c0,4.9-4.4,8.1-11.4,8.1C190,40.7,185.6,39.3,183.5,37.5z"></path>
		</g>
	</g>
	<g>
		<path class="st2" d="M132.8,61h-5.1l-1,2.4h-2l4.6-10.2h1.9l4.6,10.2h-2L132.8,61z M132.2,59.6l-1.9-4.5l-1.9,4.5H132.2z"></path>
		<path class="st2" d="M148.6,56.8c0,2.2-1.7,3.6-4.4,3.6h-2.3v3H140V53.2h4.2C146.9,53.2,148.6,54.6,148.6,56.8z M146.7,56.8			c0-1.3-0.9-2-2.5-2h-2.2v4.1h2.2C145.8,58.9,146.7,58.1,146.7,56.8z"></path>
		<path class="st2" d="M162,56.8c0,2.2-1.7,3.6-4.4,3.6h-2.3v3h-1.9V53.2h4.2C160.3,53.2,162,54.6,162,56.8z M160.1,56.8			c0-1.3-0.9-2-2.5-2h-2.2v4.1h2.2C159.2,58.9,160.1,58.1,160.1,56.8z"></path>
		<path class="st2" d="M166.8,53.2h1.9v8.6h5.3v1.6h-7.2V53.2z"></path>
		<path class="st2" d="M178.5,53.2h1.9v10.2h-1.9V53.2z"></path>
		<path class="st2" d="M185.3,58.3c0-3.1,2.3-5.3,5.5-5.3c1.7,0,3.1,0.6,4,1.7l-1.2,1.2c-0.7-0.8-1.7-1.2-2.7-1.2			c-2.1,0-3.7,1.5-3.7,3.6c0,2.1,1.5,3.6,3.7,3.6c1.1,0,2-0.4,2.7-1.2l1.2,1.2c-0.9,1.1-2.4,1.7-4.1,1.7			C187.7,63.6,185.3,61.4,185.3,58.3z"></path>
		<path class="st2" d="M206,61h-5.1l-1,2.4h-2l4.6-10.2h1.9l4.6,10.2h-2L206,61z M205.4,59.6l-1.9-4.5l-1.9,4.5H205.4z"></path>
		<path class="st2" d="M214.8,54.8h-3.4v-1.6h8.7v1.6h-3.4v8.6h-1.9V54.8z"></path>
		<path class="st2" d="M224.5,53.2h1.9v10.2h-1.9V53.2z"></path>
		<path class="st2" d="M231.3,58.3c0-3,2.3-5.3,5.5-5.3c3.2,0,5.5,2.2,5.5,5.3c0,3-2.3,5.3-5.5,5.3			C233.7,63.6,231.3,61.3,231.3,58.3z M240.4,58.3c0-2.1-1.5-3.6-3.6-3.6c-2.1,0-3.6,1.5-3.6,3.6c0,2.1,1.5,3.6,3.6,3.6			C238.9,61.9,240.4,60.4,240.4,58.3z"></path>
		<path class="st2" d="M256.4,53.2v10.2h-1.6l-5.6-6.9v6.9h-1.9V53.2h1.6l5.6,6.9v-6.9H256.4z"></path>
		<path class="st2" d="M261.2,62.3l0.7-1.5c0.8,0.7,2.1,1.1,3.4,1.1c1.6,0,2.3-0.6,2.3-1.3c0-2.2-6.1-0.8-6.1-4.6			c0-1.7,1.3-3.1,4.1-3.1c1.2,0,2.5,0.3,3.4,0.9l-0.6,1.5c-0.9-0.5-1.9-0.8-2.8-0.8c-1.6,0-2.2,0.6-2.2,1.4c0,2.2,6.1,0.8,6.1,4.5			c0,1.6-1.3,3-4.1,3C263.6,63.6,262,63.1,261.2,62.3z"></path>
	</g>
</g>
</svg>