<svg width="99" height="32" viewBox="0 0 99 32" fill="none" xmlns="http://www.w3.org/2000/svg">
<path d="M35.4318 26.4827V11.0344H38.7862L43.7076 20.833L48.5628 11.0344H51.9173V26.4827H49.0925V15.8234L44.789 24.2758H42.56L38.2566 15.8234V26.4827H35.4318Z" fill="black"/>
<path d="M57.5228 26.7475C56.5821 26.7475 55.8097 26.5958 55.2056 26.2951C54.6014 25.9944 54.1545 25.5916 53.8594 25.0923C53.5642 24.593 53.418 24.0413 53.418 23.4372C53.418 22.422 53.8152 21.5972 54.6097 20.9654C55.4042 20.3337 56.5959 20.0165 58.1849 20.0165H60.9656V19.7516C60.9656 19.0013 60.7531 18.4496 60.3256 18.0965C59.898 17.7434 59.3683 17.5668 58.7366 17.5668C58.1628 17.5668 57.6635 17.702 57.2359 17.9751C56.8083 18.2482 56.5435 18.6482 56.4414 19.1778H53.6828C53.7573 18.3834 54.0249 17.6909 54.4883 17.1034C54.9518 16.5158 55.5504 16.0634 56.2869 15.7461C57.0235 15.4289 57.8456 15.2716 58.7587 15.2716C60.3173 15.2716 61.5476 15.6606 62.4442 16.4413C63.3407 17.222 63.7904 18.3254 63.7904 19.7516V26.4827H61.3849L61.12 24.7172C60.7973 25.3047 60.3449 25.7903 59.7628 26.1737C59.1807 26.5572 58.4359 26.7475 57.5228 26.7475ZM58.1628 24.5406C58.9711 24.5406 59.6 24.2758 60.0497 23.7461C60.4993 23.2165 60.7807 22.5627 60.8993 21.782H58.4938C57.7435 21.782 57.2056 21.9172 56.8828 22.1903C56.56 22.4634 56.3973 22.7972 56.3973 23.1944C56.3973 23.622 56.56 23.953 56.8828 24.1875C57.2056 24.422 57.6331 24.5406 58.1628 24.5406Z" fill="black"/>
<path d="M66.9021 13.8372C66.3862 13.8372 65.9642 13.6827 65.6331 13.3737C65.3021 13.0647 65.1366 12.6758 65.1366 12.2041C65.1366 11.7323 65.3021 11.3461 65.6331 11.0454C65.9642 10.7447 66.3862 10.593 66.9021 10.593C67.418 10.593 67.84 10.7447 68.1711 11.0454C68.5021 11.3461 68.6676 11.7323 68.6676 12.2041C68.6676 12.6758 68.5021 13.0647 68.1711 13.3737C67.84 13.6827 67.418 13.8372 66.9021 13.8372ZM65.4897 26.4827V15.5365H68.3145V26.4827H65.4897Z" fill="black"/>
<path d="M70.1683 26.4827V10.593H72.9931V26.4827H70.1683Z" fill="black"/>
<path d="M72.7062 31.3378V28.9323H73.5669C74.0524 28.9323 74.3973 28.8358 74.6042 28.6454C74.8111 28.4551 74.9131 28.1296 74.9131 27.6744V15.5365H77.738V27.6744C77.738 28.9985 77.4042 29.9392 76.7338 30.4992C76.0635 31.0592 75.1559 31.3378 74.0083 31.3378H72.7062ZM76.3476 13.8372C75.8318 13.8372 75.4097 13.6827 75.0787 13.3737C74.7476 13.0647 74.5821 12.6758 74.5821 12.2041C74.5821 11.7323 74.7476 11.3461 75.0787 11.0454C75.4097 10.7447 75.8318 10.593 76.3476 10.593C76.8635 10.593 77.2855 10.7447 77.6166 11.0454C77.9476 11.3461 78.1131 11.7323 78.1131 12.2041C78.1131 12.6758 77.9476 13.0647 77.6166 13.3737C77.2855 13.6827 76.8635 13.8372 76.3476 13.8372Z" fill="black"/>
<path d="M84.9104 26.7475C83.8069 26.7475 82.8276 26.513 81.9752 26.0413C81.1228 25.5696 80.4525 24.9075 79.9669 24.0551C79.4814 23.2027 79.2387 22.2151 79.2387 21.0978C79.2387 19.9806 79.4787 18.9572 79.9559 18.0744C80.4331 17.1916 81.0952 16.5047 81.9421 16.0109C82.789 15.5172 83.7849 15.2716 84.9325 15.2716C86.0056 15.2716 86.9545 15.5061 87.7794 15.9778C88.6042 16.4496 89.2469 17.0923 89.7104 17.9089C90.1738 18.7254 90.4056 19.633 90.4056 20.6344C90.4056 20.7972 90.4028 20.9654 90.3945 21.142C90.3862 21.3185 90.3752 21.5034 90.3614 21.6937H82.0414C82.0993 22.5461 82.3973 23.2165 82.9352 23.702C83.4731 24.1875 84.1242 24.4303 84.8883 24.4303C85.4621 24.4303 85.9449 24.3006 86.3338 24.0441C86.7228 23.7875 87.0152 23.4509 87.2056 23.0399H90.0745C89.8676 23.7323 89.5256 24.3613 89.0483 24.9268C88.5711 25.4923 87.9807 25.9392 87.2828 26.262C86.5849 26.5847 85.7931 26.7475 84.9104 26.7475ZM84.9325 17.5668C84.24 17.5668 83.6304 17.7627 83.1007 18.1516C82.5711 18.5406 82.2318 19.1337 82.0856 19.9282H87.5366C87.4925 19.2082 87.2276 18.6344 86.7421 18.2068C86.2566 17.7792 85.6525 17.5668 84.9325 17.5668Z" fill="black"/>
<path d="M96.3642 26.4827C95.2166 26.4827 94.298 26.2041 93.6056 25.6441C92.9131 25.0841 92.5683 24.0909 92.5683 22.6647V17.8978H90.6925V15.5365H92.5683L92.8993 12.6013H95.3931V15.5365H98.3504V17.8978H95.3931V22.6868C95.3931 23.2165 95.5062 23.5806 95.7352 23.7792C95.9642 23.9778 96.3559 24.0772 96.9159 24.0772H98.2842V26.4827H96.3642Z" fill="black"/>
<path d="M37.4069 7.7627C37.0097 7.7627 36.6593 7.69373 36.3559 7.55856C36.0524 7.42339 35.8124 7.22752 35.6386 6.97097C35.4648 6.71442 35.3738 6.40545 35.3683 6.04132H36.411C36.4221 6.29511 36.5131 6.50476 36.6841 6.67856C36.8552 6.85235 37.0952 6.93787 37.3986 6.93787C37.6607 6.93787 37.8704 6.87442 38.0248 6.74752C38.1793 6.62063 38.2566 6.45235 38.2566 6.2427C38.2566 6.03304 38.1876 5.84821 38.0524 5.72407C37.9173 5.59994 37.7352 5.50063 37.509 5.42339C37.2828 5.34614 37.04 5.26339 36.7835 5.17511C36.3669 5.03166 36.0469 4.84683 35.829 4.61787C35.611 4.39166 35.5007 4.09097 35.5007 3.71304C35.4952 3.39304 35.5724 3.11994 35.7297 2.89097C35.8869 2.66201 36.1021 2.48545 36.3752 2.35856C36.6483 2.23166 36.9628 2.16821 37.3186 2.16821C37.6745 2.16821 37.9973 2.23166 38.2731 2.36132C38.549 2.49097 38.7641 2.67028 38.9214 2.90201C39.0786 3.13373 39.1614 3.40959 39.1724 3.72959H38.1131C38.1076 3.53925 38.0359 3.37097 37.8924 3.22476C37.749 3.07856 37.5531 3.00407 37.3021 3.00407C37.0869 2.99856 36.9048 3.05097 36.7586 3.16132C36.6124 3.27166 36.5379 3.43166 36.5379 3.64407C36.5379 3.82339 36.5959 3.96683 36.709 4.07166C36.8221 4.17649 36.9766 4.26752 37.1724 4.33925C37.3683 4.41097 37.5917 4.48821 37.8455 4.57097C38.1131 4.66476 38.3586 4.77235 38.5793 4.89649C38.8 5.02063 38.9793 5.18339 39.1117 5.38752C39.2469 5.59166 39.3131 5.85097 39.3131 6.17097C39.3131 6.45511 39.2414 6.71718 39.0979 6.95994C38.9545 7.2027 38.7393 7.3958 38.4579 7.54201C38.1738 7.68821 37.8262 7.7627 37.4152 7.7627H37.4069Z" fill="black"/>
<path d="M41.7159 7.6689V2.26201H42.7035V7.6689H41.7159Z" fill="black"/>
<path d="M45.2993 7.6689V2.26201H46.2869L48.8276 6.0689V2.26201H49.8152V7.6689H48.8276L46.2869 3.86752V7.6689H45.2993Z" fill="black"/>
<path d="M54.8635 7.7627C54.3173 7.7627 53.8483 7.64683 53.4566 7.41235C53.0648 7.17787 52.7641 6.85235 52.5517 6.43028C52.3393 6.01097 52.2345 5.52545 52.2345 4.97373C52.2345 4.42201 52.3393 3.93649 52.5517 3.51442C52.7614 3.09235 53.0648 2.76407 53.4566 2.52683C53.8483 2.28959 54.3173 2.17097 54.8635 2.17097C55.5117 2.17097 56.0441 2.33097 56.4579 2.65373C56.8717 2.97649 57.131 3.42614 57.2331 4.00821H56.1435C56.0773 3.7158 55.9338 3.48408 55.7159 3.3158C55.4979 3.14752 55.2083 3.06476 54.8469 3.06476C54.3476 3.06476 53.9559 3.2358 53.6717 3.57511C53.3876 3.91442 53.2469 4.38063 53.2469 4.97373C53.2469 5.56683 53.3876 6.03028 53.6717 6.36683C53.9559 6.70338 54.3476 6.87166 54.8469 6.87166C55.2083 6.87166 55.4979 6.79166 55.7159 6.63718C55.9338 6.47994 56.0773 6.26201 56.1435 5.98339H57.2331C57.131 6.54063 56.8717 6.97373 56.4579 7.28821C56.0441 7.6027 55.5117 7.75994 54.8635 7.75994V7.7627Z" fill="black"/>
<path d="M59.6524 7.6689V2.26201H60.64V4.51028H63.0648V2.26201H64.0524V7.6689H63.0648V5.31304H60.64V7.6689H59.6524Z" fill="black"/>
<path d="M25.7931 2.89649C25.1173 2.21787 24.1048 2.01097 23.2138 2.36683L3.35725 10.3089C2.47173 10.6648 1.89518 11.4758 1.85656 12.4303C1.81794 13.3848 2.32277 14.2399 3.17518 14.6675L9.0538 17.6055L11.1917 15.4675L5.40966 12.5765L23.2441 5.4427L16.1104 23.2772L13.2193 17.4951L11.0814 19.633L14.0193 25.5117C14.4304 26.3337 15.2414 26.833 16.1517 26.833C16.1848 26.833 16.2207 26.833 16.2566 26.833C17.211 26.7944 18.0221 26.2179 18.3779 25.3324L26.32 5.47304C26.6759 4.58477 26.469 3.57235 25.7904 2.89373L25.7931 2.89649Z" fill="#857AEB"/>
</svg>
