<svg xmlns="http://www.w3.org/2000/svg" xmlns:xlink="http://www.w3.org/1999/xlink" id="Calque_1" data-name="Calque 1" viewBox="0 0 210 70"><defs><style> .cls-1, .cls-2 { fill: none; } .cls-3 { clip-path: url(#clippath); } .cls-4 { fill: #000; } .cls-5 { fill: #b7c10d; } .cls-6 { fill: #262d49; } .cls-2 { stroke: #000; stroke-miterlimit: 10; } </style><clipPath id="clippath"><rect class="cls-1" x="4.54" y="5.54" width="39.8" height="57.57"/></clipPath></defs><g><g><path class="cls-4" d="m93.32,24.71h-3.7s-2.04-5-2.04-5h-6.6s-1.92,5-1.92,5h-1.69s7.81-19.71,7.81-19.71h.06s8.08,19.71,8.08,19.71Zm-9.06-13.29l-2.78,7.04h5.59s-2.81-7.04-2.81-7.04Z"/><polygon class="cls-4" points="108.15 24.71 108.15 5.53 111.76 5.53 111.76 23.2 119.46 23.2 119.46 24.71 108.15 24.71"/><polygon class="cls-4" points="134.48 24.71 134.48 5.53 145.82 5.53 145.82 6.78 138.09 6.78 138.09 14.17 145.38 14.17 145.38 15.42 138.09 15.42 138.09 23.47 145.94 23.47 145.94 24.71 134.48 24.71"/><polygon class="cls-4" points="161 24.71 161 5.53 164.23 5.53 174.26 18.73 174.32 18.73 174.32 5.53 175.86 5.53 175.86 24.71 174.26 24.71 162.6 9.41 162.54 9.41 162.54 24.71 161 24.71"/><polygon class="cls-4" points="194.78 23.47 205.28 23.47 205.28 24.71 189.78 24.71 200.4 6.78 190.78 6.78 190.78 5.53 205.46 5.53 194.78 23.47"/><polygon class="cls-4" points="57.71 24.71 57.71 6.78 53.89 6.78 53.89 5.53 65.14 5.53 65.14 6.78 61.32 6.78 61.32 24.71 57.71 24.71"/></g><line class="cls-2" x1="53.89" y1="33.84" x2="205.28" y2="33.84"/><g><path class="cls-4" d="m53.75,50.31v-7.23s4.57,0,4.57,0v.69s-3.75,0-3.75,0v2.52h3.54s0,.7,0,.7h-3.54v2.63h3.75s0,.69,0,.69h-4.57Z"/><path class="cls-4" d="m65.53,43.08h.79s0,7.23,0,7.23h-.65s-4.37-5.82-4.37-5.82v5.82s-.78,0-.78,0v-7.23s.64,0,.64,0l4.37,5.82v-5.82Z"/><path class="cls-4" d="m70.65,50.31v-6.52h-2.52s0-.71,0-.71h5.88s0,.71,0,.71h-2.52v6.52s-.84,0-.84,0Z"/><path class="cls-4" d="m81.5,50.31h-.88s-.89-2.41-.89-2.41c-.11-.3-.26-.5-.45-.6-.19-.1-.47-.15-.82-.15h-1.81v3.16s-.82,0-.82,0v-7.23s2.87,0,2.87,0c.78,0,1.38.17,1.79.52.42.35.62.84.62,1.49,0,.47-.12.87-.37,1.19-.25.32-.6.55-1.07.69.21.03.39.12.54.27.15.15.27.35.38.62l.91,2.45Zm-2.87-3.85c1.11,0,1.67-.45,1.67-1.36,0-.45-.14-.78-.41-1-.27-.22-.69-.33-1.26-.33h-1.98v2.69h1.98Z"/><path class="cls-4" d="m83.67,50.31v-7.23s4.57,0,4.57,0v.69s-3.75,0-3.75,0v2.52h3.54s0,.7,0,.7h-3.54v2.63h3.75s0,.69,0,.69h-4.57Z"/><path class="cls-4" d="m90.44,43.08h2.88c.74,0,1.33.18,1.74.54.42.36.62.85.62,1.48s-.21,1.13-.63,1.49c-.42.36-1,.54-1.74.54h-2.05v3.18s-.83,0-.83,0v-7.23Zm2.81,3.36c.53,0,.94-.12,1.21-.35.27-.23.41-.56.41-1s-.14-.76-.41-.99c-.27-.23-.67-.34-1.21-.34h-1.98v2.67h1.98Z"/><path class="cls-4" d="m103.53,50.31h-.88s-.89-2.41-.89-2.41c-.11-.3-.26-.5-.45-.6-.19-.1-.47-.15-.82-.15h-1.81v3.16s-.82,0-.82,0v-7.23s2.87,0,2.87,0c.78,0,1.38.17,1.79.52.42.35.62.84.62,1.49,0,.47-.12.87-.37,1.19-.25.32-.6.55-1.07.69.21.03.39.12.54.27.15.15.27.35.38.62l.91,2.45Zm-2.87-3.85c1.11,0,1.67-.45,1.67-1.36,0-.45-.14-.78-.41-1-.27-.22-.69-.33-1.26-.33h-1.98v2.69h1.98Z"/><path class="cls-4" d="m105.69,50.31v-7.23s4.57,0,4.57,0v.69s-3.75,0-3.75,0v2.52h3.54s0,.7,0,.7h-3.54v2.63h3.75s0,.69,0,.69h-4.57Z"/><path class="cls-4" d="m117.47,43.08h.79s0,7.23,0,7.23h-.65s-4.37-5.82-4.37-5.82v5.82s-.78,0-.78,0v-7.23s.64,0,.64,0l4.37,5.82v-5.82Z"/><path class="cls-4" d="m120.85,43.08h2.43c1.16,0,2.05.31,2.69.94.63.63.95,1.52.95,2.67,0,1.16-.32,2.05-.95,2.68-.63.63-1.53.94-2.69.94h-2.43s0-7.23,0-7.23Zm2.38,6.52c.93,0,1.64-.24,2.11-.73.47-.49.71-1.22.71-2.18,0-1.93-.94-2.89-2.81-2.89h-1.54v5.81h1.54Z"/><path class="cls-4" d="m134.9,50.31h-.88s-.89-2.41-.89-2.41c-.11-.3-.26-.5-.45-.6-.19-.1-.47-.15-.82-.15h-1.81v3.16s-.82,0-.82,0v-7.23s2.87,0,2.87,0c.78,0,1.38.17,1.79.52.42.35.62.84.62,1.49,0,.47-.12.87-.37,1.19-.25.32-.6.55-1.07.69.21.03.39.12.54.27.15.15.27.35.38.62l.91,2.45Zm-2.87-3.85c1.11,0,1.67-.45,1.67-1.36,0-.45-.14-.78-.41-1-.27-.22-.69-.33-1.26-.33h-1.98v2.69h1.98Z"/><path class="cls-4" d="m137.06,50.31v-7.23s4.57,0,4.57,0v.69s-3.75,0-3.75,0v2.52h3.54s0,.7,0,.7h-3.54v2.63h3.75s0,.69,0,.69h-4.57Z"/></g><g><path class="cls-4" d="m53.75,63.11v-7.23s4.57,0,4.57,0v.69s-3.75,0-3.75,0v2.52h3.54s0,.7,0,.7h-3.54v2.63h3.75s0,.69,0,.69h-4.57Z"/><path class="cls-4" d="m60.12,62.28l.31-.64c.36.3.72.52,1.1.65.37.13.81.19,1.3.19.58,0,1.03-.11,1.35-.34.31-.23.47-.55.47-.96,0-.24-.08-.44-.23-.59-.15-.15-.35-.27-.6-.36-.25-.09-.58-.18-.99-.27-.56-.12-1.01-.25-1.37-.4-.36-.14-.65-.35-.87-.61-.22-.27-.34-.62-.34-1.05s.11-.78.32-1.09c.22-.32.52-.56.92-.74.4-.18.86-.26,1.39-.26s.97.08,1.4.23c.43.16.8.38,1.1.68l-.32.64c-.34-.29-.68-.5-1.03-.64-.35-.14-.73-.2-1.14-.2-.56,0-1,.12-1.32.36-.32.24-.48.57-.48.99,0,.37.14.64.42.82.28.18.7.34,1.28.48.62.15,1.11.29,1.47.41.36.13.65.31.89.57.24.25.36.59.36,1.01s-.11.76-.32,1.07c-.22.31-.53.55-.93.72-.4.17-.88.25-1.42.25-1.13,0-2.03-.3-2.7-.91Z"/><path class="cls-4" d="m69.4,63.11v-6.52h-2.52s0-.71,0-.71h5.88s0,.71,0,.71h-2.52v6.52s-.84,0-.84,0Z"/><path class="cls-4" d="m78.71,62.46c-.48-.49-.73-1.22-.73-2.18v-4.4s.82,0,.82,0v4.47c0,.7.17,1.24.52,1.59.35.36.86.54,1.53.54s1.18-.18,1.52-.54c.34-.36.51-.89.51-1.59v-4.47s.83,0,.83,0v4.4c0,.95-.24,1.68-.73,2.17-.49.49-1.2.74-2.13.74-.95,0-1.66-.25-2.15-.74Z"/><path class="cls-4" d="m91.26,55.88h.79s0,7.23,0,7.23h-.65s-4.37-5.82-4.37-5.82v5.82s-.78,0-.78,0v-7.23s.64,0,.64,0l4.37,5.82v-5.82Z"/><path class="cls-4" d="m103.61,63.11l-.79-1.86h-3.78s-.8,1.86-.8,1.86h-.86s3.18-7.23,3.18-7.23h.73s3.18,7.23,3.18,7.23h-.85Zm-4.28-2.55h3.19s-1.59-3.72-1.59-3.72l-1.59,3.72Z"/><path class="cls-4" d="m112.02,63.11h-.88s-.89-2.41-.89-2.41c-.11-.3-.26-.5-.45-.6-.19-.1-.47-.15-.82-.15h-1.81v3.16s-.82,0-.82,0v-7.23s2.87,0,2.87,0c.78,0,1.38.17,1.79.52.42.35.62.84.62,1.49,0,.47-.12.87-.37,1.19-.25.32-.6.55-1.07.69.21.03.39.12.54.27.15.15.27.35.38.62l.91,2.45Zm-2.87-3.85c1.11,0,1.67-.45,1.67-1.36,0-.45-.14-.78-.41-1-.27-.22-.69-.33-1.26-.33h-1.98v2.69h1.98Z"/><path class="cls-4" d="m115.93,63.11v-6.52h-2.52s0-.71,0-.71h5.88s0,.71,0,.71h-2.52v6.52s-.84,0-.84,0Z"/><path class="cls-4" d="m130.71,55.88h.69s0,7.23,0,7.23h-.77s0-5.37,0-5.37l-2.35,5.37h-.59s-2.37-5.33-2.37-5.33v5.33s-.76,0-.76,0v-7.23s.69,0,.69,0l2.74,6.24,2.71-6.24Z"/><path class="cls-4" d="m139.51,63.11l-.79-1.86h-3.78s-.8,1.86-.8,1.86h-.86s3.18-7.23,3.18-7.23h.73s3.18,7.23,3.18,7.23h-.85Zm-4.28-2.55h3.19s-1.59-3.72-1.59-3.72l-1.59,3.72Z"/><path class="cls-4" d="m141.3,64.2c.3.05.55.08.73.08.35,0,.59-.1.73-.29.14-.19.21-.52.21-.99v-7.12s.83,0,.83,0v7.13c0,.7-.13,1.21-.38,1.52-.25.31-.67.47-1.25.47-.23,0-.52-.03-.86-.08v-.72Z"/><path class="cls-4" d="m146.39,63.11v-7.23s4.57,0,4.57,0v.69s-3.75,0-3.75,0v2.52h3.54s0,.7,0,.7h-3.54v2.63h3.75s0,.69,0,.69h-4.57Z"/><path class="cls-4" d="m153.83,62.46c-.48-.49-.73-1.22-.73-2.18v-4.4s.82,0,.82,0v4.47c0,.7.17,1.24.52,1.59.35.36.86.54,1.53.54s1.18-.18,1.52-.54c.34-.36.51-.89.51-1.59v-4.47s.83,0,.83,0v4.4c0,.95-.24,1.68-.73,2.17-.49.49-1.2.74-2.13.74s-1.66-.25-2.15-.74Z"/><path class="cls-4" d="m167.06,63.11h-.88s-.89-2.41-.89-2.41c-.11-.3-.26-.5-.45-.6-.19-.1-.47-.15-.82-.15h-1.81v3.16s-.82,0-.82,0v-7.23s2.87,0,2.87,0c.78,0,1.38.17,1.79.52.42.35.62.84.62,1.49,0,.47-.12.87-.37,1.19-.25.32-.6.55-1.07.69.21.03.39.12.54.27.15.15.27.35.38.62l.91,2.45Zm-2.87-3.85c1.11,0,1.67-.45,1.67-1.36,0-.45-.14-.78-.41-1-.27-.22-.69-.33-1.26-.33h-1.98v2.69h1.98Z"/></g></g><g class="cls-3"><rect class="cls-5" x="4.54" y="5.54" width="39.8" height="57.57"/><g><path class="cls-6" d="m26.67,31.03l13.32-21.21h-8.11c-3.16.02-3.2,1.39-3.42,3.54h-1.15s.21-4.92.21-4.92l16.79-.03v1.54s-13.36,21.25-13.36,21.25l9.34-.02c3.16,0,3.2-1.55,3.45-3.99h1.15s-.18,5.38-.18,5.38l-18.05.03v-1.58Z"/><path class="cls-6" d="m-6.75,27.86c.8-7.68,5.16-9.61,9.68-10.27v-.14c-4.06-1.5-7.5-4.33-6.81-10.91C-3.2.03,2.86-3.67,10.53-2.93c8.1.79,13.17,5.16,12.41,12.42-.71,6.79-5.48,8.47-8.91,9.03v.14c3.71,1.4,8.3,4.27,7.54,11.53-.92,8.77-6.95,11.58-15.48,10.75-8.24-.8-13.62-5.62-12.84-13.09m13.05,10.41c5.75.56,8.37-3.2,8.94-8.62.57-5.48-1.55-9.91-6.95-10.44C2.96,18.7.11,23.34-.39,28.13c-.53,5.07,1.65,9.65,6.69,10.14m2.23-21.38c5.4.52,7.58-3.21,8.09-8.08C17.11,4.15,15.3.24,10.25-.26,5.49-.72,2.87,3.11,2.41,7.5c-.47,4.45,1.01,8.89,6.12,9.39"/><path class="cls-6" d="m22.59,45.72c.48.81,1.99,3.31,1.99,6.97,0,5.98-4.28,10.4-10.6,10.4-8.67,0-12.77-7.09-12.77-14.7,0-4.07.9-7.44,1.14-8.42h2.23c-.6,1.92-1.02,3.43-1.02,6.27,0,6.28,3.55,11.68,10.72,11.68,3.25,0,7.35-2.5,7.35-7.2-.12-3.37-1.93-5.17-3.19-6.22v-3.25s20.66,1.05,20.66,1.05v18.13s-2.95,0-2.95,0v-14s-13.55-.7-13.55-.7Z"/><path class="cls-6" d="m35.56,33.88h-3.86c-3.6,0-3.69,1.48-3.95,4h-1.33s.22-5.63.22-5.63l21.56.03.21,5.62h-1.33c-.25-2.52-.25-4.01-3.94-4.02h-3.86s0,29.21,0,29.21h-3.82s.1-29.22.1-29.22Z"/></g></g></svg>